<svg width="514" height="439" fill="none" xmlns="http://www.w3.org/2000/svg"><g clip-path="url(#clip0)"><path d="M108 55.8c17 1.2 24-10.4 32-25.2 21.7-40.7 70.2-36.8 86.4-11.7 11.5 17.7 36.4 14 56.4 7.1 19.8-6.8 53.5-13.4 80.3-5.2 23.5 7.1 33 32.8 54.4 31.2 46.6-3.4 70.1 42.6 61.7 62.7a59.2 59.2 0 00-3.8 41.2c5 14.9 16.2 26.6 25.3 39.4 9.1 12.7 16.5 28.7 12 43.7-4 12.8-15.5 21.7-22.7 33-22.3 35.2-.2 89.1-29.9 118.4-21.3 21-55.9 16.2-85.6 20.2-24.8 3.3-48.1 13.8-72.8 17.8-50 8.3-100.5-9.9-151.1-10.4-17.9-.2-36 1.8-53.3-2.6a74.3 74.3 0 01-50.7-45.9c-11-30.6-.6-66.1-13-96.3-10.2-24.5-35-44.5-33.5-71 1-16.5 12.2-30.2 20-44.9C31.4 135.6 16.2 49.7 108 55.8zM255.5 16c-4.5 0-8 2.8-8 6.2s3.5 5.8 8 6.1c14.4 1 14.4-4.9 14.4-8.3 0-5.4-10-4-14.4-4zm146.8 26.3a23.8 23.8 0 0013.8 5.4c1.4 0 2.8 0 3.8-.9a3.1 3.1 0 00.3-4.4c-.7-.8-1.7-1-2.7-1.5a8.6 8.6 0 01-4.2-3.1c-.3-.5-.5-1-1-1.2-2.7-1.6-15 1.5-10 5.7zm24.6 5.5c1.3.4 2.7 0 4-.4.8-.3 1.8-.9 1.6-1.7-.1-.4-.5-.7-.8-.9-1.7-.8-4-1.5-5.6-.4-1.7 1.2-.4 3 .8 3.4zM485.7 164c.2 2 1.4 3.6 2.6 5.1 2.2 3 4.4 6.1 7.3 8.5 1.3 1 2.7 1.8 4.3 1.9a6.6 6.6 0 004-1.5 12.8 12.8 0 005.2-8.8c.5-4.7-1.7-9.4-4.3-13.4-1.6-2.6-3.4-5-6.1-6.4-4.5-2.3-7.4-.3-8.7 3.7-1.1 3.6-4.7 6.8-4.3 10.9zM8.7 275c-2.3 2.1-.1 8.2.5 12.3.2 1.2.5 2.4 1.3 3.4 1 1.3 2.8 1.8 4.4 2.3 2.8.8 6.3 1.5 8.5-.5 1.7-1.5 1.9-4 1.9-6.1l-.3-6a6.3 6.3 0 00-.8-2.8c-.7-1-1.8-1.7-3-2.2-4-1.7-10-2.4-12.4-.3zm144.4 152.6c-1.4.3-3.1.9-3.3 2.3-.2 1.2.8 2.1 1.7 2.8 7.7 5.8 18.1 6.2 27.7 6.3 1.2 0 2.3 0 3.4-.4a4.3 4.3 0 002-5.6 6.7 6.7 0 00-1.4-2c-7.8-7.5-20.5-5.3-30.1-3.4zm192.4-3.9c-8.7 6.4 0 12 11 7.9 6-2.3 11.6-4.6 17.7-6 2-.6 13.8-3.1 13.8-5.8 0-7-13.3-5.4-21.7-4.2-6.8 1-13.7 2.9-20.8 8.1z" fill="#ECF3FF"/><path d="M182 405.3c23.2 0 42-1.7 42-3.9 0-2.1-18.8-3.9-42-3.9s-41.8 1.8-41.8 4 18.7 3.8 41.9 3.8zm215.1 0c23.1 0 41.9-1.7 41.9-3.9 0-2.1-18.8-3.9-42-3.9s-41.8 1.8-41.8 4 18.8 3.8 41.9 3.8z" fill="#C8DBFB"/><path d="M485.5 126c0-.8-.2-1.5-.4-2.2" stroke="#C8DBFB" stroke-linecap="round" stroke-linejoin="round"/><path d="M484.1 119.6c-7.5-25.4-31.3-23-52.8-23l-381.8.9c-36 0-32.5 52.1-4.3 52 16.2 0 22.4 30.5-5.6 30.5-16.9 0-17.4 21.4-6 25.7" stroke="#C8DBFB" stroke-linecap="round" stroke-linejoin="round" stroke-dasharray="3.99 3.99"/><path d="M35.6 206.3l2.2.1" stroke="#C8DBFB" stroke-linecap="round" stroke-linejoin="round"/><path d="M42.2 205.4a5.2 5.2 0 11-10.3 1.8 5.2 5.2 0 0110.3-1.8zm448.4-77.1a5.2 5.2 0 11-10.2-1.9 5.2 5.2 0 0110.2 1.9zM95 167.5A90.4 90.4 0 0192 180C89 188.7 85 197.1 81 205.5a48.4 48.4 0 01-15 16.3c.4-11.3.5-24.6-.8-36-1.3-11.2 2.7-19.5-1.7-29.8l-1.7-4a54.6 54.6 0 01-5-15c-.8-6.6 1.3-14.2 7-17.7 4.2-2.5 9.6-2.3 14-.4 4.5 2 8 5.6 10.7 9.6 7.5 11.2 9 25.7 6.5 39z" fill="#5193F4"/><path d="M74.9 130.7c8.5 12 9.2 26 10 40.6a78.3 78.3 0 01-10 42.3" stroke="#0B43A4" stroke-miterlimit="10" stroke-linecap="round" stroke-linejoin="round"/><path d="M74.5 351.8c-5.9-5.3-12-10.6-16.3-17.2-3.8-5.8-6.3-12.3-9.6-18.4-2.2-3.9-4.7-7.7-6-12-1.2-4.3-1-9.3 2.1-12.6 3.2-3.4 8.7-4 13-2.2a23 23 0 0110.1 9.3 44.5 44.5 0 016.5 17.3c.9 5.5.7 11.2 1.5 16.8a56.1 56.1 0 004.8 14.8c2 4.3 7 12 8.3 16.4-3.6 1.8-11.8-10-14.4-12.2z" fill="#00AD9F"/><path d="M53.8 297.3c5.6 2.4 7.9 9.2 9 15.2 1.4 7 1 14.4 4.2 20.7 6 11.8 13.7 25.2 19.5 29.2" stroke="#00AD9F" stroke-miterlimit="10" stroke-linecap="round" stroke-linejoin="round"/><path d="M45.3 335.6c-5-2-11.5-2.8-14.7 1.5-2.6 3.6-1.3 8.6.6 12.7 1.5 3.4 3.5 6.9 6.7 8.7 2.2 1.3 4.8 1.7 7.4 2 7 .8 14.2 1.2 21.4 1.2 8.2 0 18.3 3.4 25.1 8.5-8.8-16.3-30-28-46.5-34.6z" fill="#0056EC"/><path d="M36.6 346.2c6.3.3 12.6.7 18.7 2.5S85 361.4 88.9 366" stroke="#0B43A4" stroke-miterlimit="10" stroke-linecap="round" stroke-linejoin="round"/><path d="M99.1 302a41.8 41.8 0 00-29.2-18.6c-8.8-1.2-17.7.4-26.4-1.4a34 34 0 01-21.9-15.7 34 34 0 01-3.3-26.8c2-6.7 6.6-13.1 13.3-15.3 3.7-1.1 7.7-1 11.4 0 3.4.7 6.6 2.2 9.6 4a52.2 52.2 0 0116.3 17.9c3.7 6.3 12.8 16.2 19 22.6 3.7 3.8 6.4 6.3 6.4 6.3 4.3 5.4 2.3 20.7 4.8 27z" fill="#52D2BC"/><path d="M29.7 243.7c21 9.5 43.8 22 58.7 39.5" stroke="#00AD9F" stroke-miterlimit="10" stroke-linecap="round" stroke-linejoin="round"/><path opacity=".2" d="M90.4 280.8s-31.2-25.3-37.8-52.5A52.1 52.1 0 0168.9 246a156 156 0 0019 22.6l2.5 12.1zM92 180C89 188.7 85 197.1 81 205.5a48.3 48.3 0 01-15 16.3c.4-11.3.5-24.6-.8-36-1.3-11.2 2.7-19.5-1.7-29.8l-1.7-4 1.2.5c7.1 3 10.4 10.6 11 18 .5 6-.5 12-1.4 18a24 24 0 000 8.4c.7 3.3 5.4 3.1 6-.1l2-10.1c.5-3 1.1-6.2 3.6-8.3a5.2 5.2 0 013.5-1.3c2 0 3.3 1.3 4.2 2.8z" fill="#5275A0"/><path d="M90.4 274.5c-5-25.8-7.5-29.8-5.3-36.3 2.7-8.2 1.2-16.5 3.8-24.8s4.4-17.2 2.3-25.6c-.7-2.7-2-5.6-5.2-5.7a5.2 5.2 0 00-3.5 1.3c-2.5 2-3.1 5.2-3.7 8.3l-1.9 10c-.6 3.3-5.3 3.5-6 .2-.7-2.8-.4-5.6 0-8.4.8-6 1.9-12 1.4-18.1-.6-7.3-4-14.9-11-18a12.6 12.6 0 00-8-.6c-7.5 2-9.5 9.2-8.4 15.4.8 4.4 2.8 8.4 4.7 12.5 4.5 9.8 1.2 18.9 1.8 29.7 1.8 29.9 39 60 39 60z" fill="#7EE8D4"/><path d="M57.2 164.7c3.7 18.3 7.4 36.8 14.5 54.1 2.1 5 3.1 11.8 15.2 25.6" stroke="#00AD9F" stroke-miterlimit="10" stroke-linecap="round" stroke-linejoin="round"/><path d="M200.4 169.4c-3.8-4.4-7.3-8.8-11-13-2.4-2.8-4.8-5.5-7.5-8a76.3 76.3 0 00-4.2-3.8 116.8 116.8 0 00-28.3-17.3c-6.2-2.7-12.7-4.9-18-9-5.2-4.3-9-11.2-7.2-17.7 1.2-4.7 5.2-8.3 9.8-10 4.5-1.6 9.6-1.5 14.3-.5a53.3 53.3 0 0131.7 23.6l.4.6c5.5 8.4 9.4 17.8 12.7 27.3l3.1 9.2c1.5 4.5 6.2 14 4.2 18.6z" fill="#5193F4"/><path d="M140 101.2c14.4 2.7 24.6 12.3 35.3 22.3a78.3 78.3 0 0122 37.4" stroke="#0B43A4" stroke-miterlimit="10" stroke-linecap="round" stroke-linejoin="round"/><path opacity=".2" d="M189.4 156.3c0 1.5 0 3 .2 4.5-3.6-.8-6-6.4-7.7-12.5a94.2 94.2 0 01-2.7-15.3 66.2 66.2 0 011.2-18.7c5.5 8.4 9.4 17.7 12.7 27.3a112.5 112.5 0 00-3 10.3 30 30 0 00-.7 4.4z" fill="#5275A0"/><path d="M214.5 104.3c-1.3 5.4-4.5 10-7.4 14.8a116.7 116.7 0 00-13.9 33.9c-.7 3-1 6-.5 9-7-1.7-10-21.9-10.4-27.9a65.5 65.5 0 015.4-31.8c2-4.3 4.5-8.6 8.3-11.4 3.9-2.8 9.4-3.8 13.4-1.3a11 11 0 014.8 6.6c.8 2.6.8 5.5.3 8z" fill="#52D2BC"/><path d="M190 156c-4.4-11.1-1.7-34.6 5.3-49.4a25 25 0 019.5-11.1" stroke="#00AD9F" stroke-miterlimit="10" stroke-linecap="round" stroke-linejoin="round"/><path opacity=".2" d="M214.5 104.3c-1.3 5.4-4.5 10-7.4 14.8-1.5 2.5-3 5-4.3 7.7a26 26 0 01-3.6-10.7c-.6-6.3 1.8-13 7-16.7 2.3-1.8 5.1-2.7 8-3.2.8 2.6.8 5.5.3 8z" fill="#5275A0"/><path d="M255.4 151.3a23 23 0 01-1.8 6 39 39 0 01-19.7 17.4l-.7-13.6c-.4-12.4-13.9-19.3-22.4-28.3a29.1 29.1 0 01-8.2-16.7c-.6-6.3 1.8-13 7-16.7 4.3-3.1 9.9-3.8 15.1-3.4 8.6.7 17.1 4.2 22.4 10.9l.7.8c3.2 4.4 4.9 9.8 6.1 15.2 2.1 9.3 3 19 1.5 28.4z" fill="#00AD9F"/><path d="M213.2 106a57.3 57.3 0 0124 19.6c7.6 12.5 6 28.7.1 42.1" stroke="#00AD9F" stroke-miterlimit="10" stroke-linecap="round" stroke-linejoin="round"/><path d="M410.9 231.1c5.9-9.7 2.9-22.3 5-33.5a37 37 0 0113.2-22c4.3-3.5 10.3-6 15.2-3.4 1 .6 2.3 1.4 3.3.7.6-.3.9-1.1 1-1.8 1.2-6-1.7-12.7.7-18.4 1.3-3 4-5.3 6.7-7.1a36.7 36.7 0 0118.2-5.7c1.7-.1 3.5 0 5 .7 2.8 1.4 4 4.8 3.7 7.9-.4 3-2.1 5.8-4 8.2-6.2 8.2-15.3 15.2-16.5 25.4a6.7 6.7 0 00.4 3.8c.6 1 1.7 1.9 2.3 3 1.9 3.5-1.8 7.5-5.4 9.2a31.2 31.2 0 01-10.5 3c-2.6.2-5.4.2-7.1 2-3.1 3.5.5 9-.2 13.6-.4 2.8-2.5 5.2-4.6 7.2a83 83 0 01-12.7 10c-3.6 2.3-7.5 4.4-10.8 7.3a16.7 16.7 0 00-6 11.2" fill="#52D2BC"/><path d="M418.6 221.6c1-4.7 3.2-9 5.4-13.4a80.7 80.7 0 0112-19c3.9-4.2 8.6-7.6 12.6-11.7a43.5 43.5 0 007.1-9.9c1-2 2-4 3.3-5.7 1.7-2 4-3.5 5.9-5.3a25 25 0 006.2-8.6" stroke="#00AD9F" stroke-miterlimit="10" stroke-linecap="round" stroke-linejoin="round"/><path d="M495.9 237.9a36.2 36.2 0 01-6.7 14.3 30.5 30.5 0 01-8.5 6.8 47.7 47.7 0 01-5.1 2.5 61.5 61.5 0 01-21.4 4.8c-10.7.4-21.7-2-32 1a31.5 31.5 0 00-12.6 7.4 30.7 30.7 0 00-5.7 7.1l1.4-8.8a99.8 99.8 0 0110.5-27.7 104.8 104.8 0 0137.7-32 43.6 43.6 0 0124-5.2c8.1 1 16.2 6.2 18.8 14 1.6 5.1 1 10.6-.4 15.8z" fill="#5193F4"/><path d="M412.3 266.2a64.9 64.9 0 0133-25c8.3-2.8 17-3.9 25.4-6.3a38.3 38.3 0 0021.8-13.8" stroke="#0B43A4" stroke-miterlimit="10" stroke-linecap="round" stroke-linejoin="round"/><path d="M417.5 351.5c.5-12 6.6-23 14.1-32.3a56.8 56.8 0 0123.1-18.4c3-1 6.2-1.8 9.2-1 3 .7 5.8 3.2 5.9 6.4 0 2.6-1.8 5-3.6 6.8-6.2 6.1-14 10-21.5 14.5-12.8 7.8-24.9 18-30 32" fill="#52D2BC"/><path d="M422.2 341c7.8-17.3 28-32.9 41.3-34.8" stroke="#00AD9F" stroke-miterlimit="10" stroke-linecap="round" stroke-linejoin="round"/><path d="M412.6 361c0-2 6.4-7.2 8-8.5a75.5 75.5 0 0128-16 24 24 0 0112.7-1.3c4.1 1 8 4.4 8.3 8.8.4 4.4-2.5 8.6-6.2 10.7a22 22 0 01-12.2 2.2c-6.4-.4-12.7-2-19-2-6.5.1-15.5.8-19.6 6.2z" fill="#00AD9F"/><path d="M419.3 355a89.1 89.1 0 0147.3-10" stroke="#00AD9F" stroke-miterlimit="10" stroke-linecap="round" stroke-linejoin="round"/><path opacity=".2" d="M255.4 151.3a23 23 0 01-1.8 6c-4.6-9.8-8.7-22.5-9.6-38.2-.3-4.2.9-8.6 3.1-12.2l.7.8c3.2 4.4 4.9 9.8 6.1 15.2 2.1 9.3 3 19 1.5 28.4z" fill="#5275A0"/><path d="M300.8 150.8c9.8-3.5 20-6.3 28.9-11.7 2.7-1.6 5.3-3.5 7.2-6 1.9-2.5 3-5.6 2.7-8.8-.5-3.1-2.5-6.2-1.8-9.3.4-2 2-3.7 3.2-5.4a17.3 17.3 0 002.2-14.4c-1.6-5.2-5.4-9.3-7.6-14.2a23.7 23.7 0 01-1.9-13c-8.2.2-15.7 4.7-23.8 6.2-6.1 1.1-12.6.5-18.7 2a29.6 29.6 0 00-22 23.7 16.3 16.3 0 00-14.4 4.8 21.2 21.2 0 00-5.6 15.4c2.5 40.6 25.7 61.7 25.7 61.7s22.2-29.7 26-31z" fill="#7EE8D4"/><path d="M278.9 150.5c-1-10 2.5-20 6.5-29.1 3.9-9 8.4-17.8 14.4-25.5 6-7.8 13.8-14.4 22.8-18.1m-35 6.2a80.8 80.8 0 002 28.3m1.7-3.2a69.8 69.8 0 0138-9.8m-62.9 11.5c12.3 5.1 12.8 23.2 13.1 28.3m3.3-11.5c9.4-6.7 23-8.7 33-6.2m-7.4-42.1a14.8 14.8 0 00-3.2 10.5m2.7-2.5a23.6 23.6 0 0116.3-1.2" stroke="#00AD9F" stroke-miterlimit="10" stroke-linecap="round" stroke-linejoin="round"/><path d="M66.7 106.9c1.2 0 9-6 12-7.9a8.2 8.2 0 002.3-2c.6-.7 1-1.9.5-2.8-.6-1.1-1.4-2.3-3.7-2.3-3.9 0-5.3 1.3-7.2 3.3-6.3 6.5-3.9 11.7-3.9 11.7zm35.2 23.5c3.5 1.5 7.1 3 10.8 2.6 1.5-.2 3-.9 3.5-2.3.4-1.1-.1-2.5-1-3.3a7.7 7.7 0 00-3.4-1.5c-4.6-1.1-11-.5-15.5.8 0 0 3.6 2.7 5.6 3.7zm22.6-50.6c-1.6-1-3.3-2.3-3.2-4 0-1.9 1.8-3.3 3.7-3.3 1.8 0 3.4 1 4.8 2.2 5.8 5 5 10.8 5 10.8s-8.6-4.6-10.3-5.7zm4.5-15.4a7.4 7.4 0 01-3.5-2.5c-.4-.6-.6-1.4-.4-2 .4-1.2 1.1-2.2 4-1.7C138 60 139.8 66 139.8 66s-8.5-.6-10.9-1.6zm26.2 13.5a14.1 14.1 0 009.5-4.9 8.7 8.7 0 002-3.5c.2-1.4 0-2.9-1.1-3.8-1.3-1-3.3-.9-4.6 0a9.1 9.1 0 00-3 4c-1 2-2.8 8.2-2.8 8.2z" fill="#4A49CA"/><path d="M91.2 208.7l-26-23c-4.7-4-9.4-8.3-12.3-13.7-6.3-11.7-2.7-26.8 5.8-37a74.2 74.2 0 0133.5-20.6c12.5-4.3 25.5-7.4 37.5-13.2 7.4-3.6 15-9 17-17a17.3 17.3 0 00-2.7-14.3 17.3 17.3 0 00-12.8-7m30 6.7c-2.3 7.3-11.6 11.7-15.8 18" stroke="#0B43A4" stroke-miterlimit="10" stroke-linecap="round" stroke-linejoin="round"/><path d="M128 78c1.9 1.9 4 3.5 5.7 5.6a12.2 12.2 0 01-1.4 16.3m-51 18.9a49.5 49.5 0 0027.4 10.2m-44.9.5A27 27 0 0173 100" stroke="#0B43A4" stroke-miterlimit="10" stroke-linecap="round" stroke-linejoin="round"/><path d="M343.7 85.6c-.4-1.3-.4-3 .5-3.9.8-.7 2-1 3-.6 7.7 3.3 6.8 15.2 6.8 15.2s-7.2-1-10.3-10.7zm-.2 22.2c-5 9 12.6 8.3 18.9 3 0 0-14.7-10.6-18.9-3zm22.1-21.6c-1.2-1.6-1.6-4-.3-5.6 1-1.1 2.7-1.5 4.1-1.2a9.6 9.6 0 014.7 2.8c5.7 7.2 3 14.2 3 14.2s-9.5-7.5-11.5-10.2zm69.5 22.1c-.4-1.4-.3-3 .8-4a3.4 3.4 0 012.5-.8c1 0 1.8.4 2.7.7a8.3 8.3 0 014 4c2.2 4.5.7 10 .7 10s-9.6-6.4-10.7-9.9zm-21.8 16.3a11.2 11.2 0 00-11.6-1.8 6 6 0 00-2.5 1.8c-1.4 2-1 4.8.5 6.6 1.5 1.9 3.6 3 5.8 4 3.9 1.8 10 2.1 14 3.2 0 0 0-8.3-6.2-13.8z" fill="#4A49CA"/><path d="M349.1 87.5a30.7 30.7 0 0018 18.2c8.1 3.5 17 4.4 25.9 5 8.8.5 17.7.8 26.2 3.1 8.3 2.3 16.5 7 20 14.8 4.4 9.5.6 20.9-5.5 29.4-6 8.5-14.3 15.3-20.2 24-2.7 4-5 8.6-4.4 13.4.8 6.4 6.1 11 11 15m-50.7-126a50.5 50.5 0 0111.6 25.1" stroke="#0B43A4" stroke-miterlimit="10" stroke-linecap="round" stroke-linejoin="round"/><path d="M349.8 109.3c3.3.9 6.7 1.8 10.2 1.8 3.4 0 7.4-2 9.9-4.3m71 2a17.2 17.2 0 015.1 11.6c.2 4.4-2.2 9.6-5 12.9m-32.8-4.8c6.2 5.8 11.7 10.4 18.6 15.3 3.1 2.2 9.4 5 12.2 4.3" stroke="#0B43A4" stroke-miterlimit="10" stroke-linecap="round" stroke-linejoin="round"/><path opacity=".2" d="M480.7 259a47.8 47.8 0 01-5.1 2.5 61.5 61.5 0 01-21.4 4.8c-10.7.4-21.7-2-32 1a31.5 31.5 0 00-12.6 7.4c-.4.2-.7.3-1 .6-1-7.3 17.1-16.8 22.6-19.2a65.4 65.4 0 0131.8-5.6c4.7.4 9.6 1.3 13.5 4a14.5 14.5 0 014.2 4.5z" fill="#5275A0"/><path d="M463 254.9c4.7.3 9.6 1.3 13.5 4 3.9 2.7 6.7 7.5 5.8 12.2-1.1 5.4-6.7 9-12.2 9.6-5.5.7-11-.8-16.4-2a116.8 116.8 0 00-36.6-1.6c-3 .3-6 1-8.6 2.5-.9-7.3 17.2-16.7 22.7-19.2A65.3 65.3 0 01463 255z" fill="#52D2BC"/><path d="M413.2 275c9-7.9 32-13.2 48.3-11.5 4.9.5 9.8 2 13.6 5.2" stroke="#00AD9F" stroke-miterlimit="10" stroke-linecap="round" stroke-linejoin="round"/><path d="M396.4 186.4l87.6-.2a18.6 18.6 0 01.1 37.2l-59.9.2m-292.8 27.1L70 251a10.5 10.5 0 100 21h18" stroke="#0B43A4" stroke-miterlimit="10" stroke-linecap="round" stroke-linejoin="round" stroke-dasharray="4 4"/><path d="M33.6 298.2c-21 0-21.4 31.4 5.3 31.3l393.5-.8c16.5 0 18.3-25.8-2.1-25.8-40.7.1-42-19.3-19.5-19.3" stroke="#C8DBFB" stroke-miterlimit="10" stroke-linecap="round" stroke-linejoin="round" stroke-dasharray="4 4"/><path d="M38.5 297.3a5.2 5.2 0 11-10.2 1.8 5.2 5.2 0 0110.2-1.8z" fill="#5193F4"/><path d="M420.9 283.7a5.2 5.2 0 11-10.3 1.7 5.2 5.2 0 0110.3-1.7z" fill="#0B43A4"/><path opacity=".2" d="M426.6 374.3l-326 .6a7.9 7.9 0 01-7.8-7.8l-.4-216a7.9 7.9 0 017.8-7.9l325.9-.7a7.9 7.9 0 017.9 7.9l.4 216a7.9 7.9 0 01-7.8 7.9z" fill="#5275A0"/><path d="M420.2 370.1l-325.9.7a7.9 7.9 0 01-7.9-7.9L86 147a7.9 7.9 0 017.8-7.8l325.9-.7a7.9 7.9 0 017.9 7.8l.4 216a7.9 7.9 0 01-7.8 8z" fill="#fff"/><path d="M419.2 138.4l-324.5.7a8.6 8.6 0 00-8.6 8.6v7.4l341.7-.7V147a8.6 8.6 0 00-8.6-8.5z" fill="#0056EC"/><path d="M95 370.8h49.1l-.4-215.8-57.6.1.4 207.2a8.6 8.6 0 008.6 8.5z" fill="#C8DBFB"/><path d="M419.8 140.6c3.1 0 5.7 2.5 5.7 5.7l.4 216c0 1.5-.5 3-1.6 4a5.6 5.6 0 01-4 1.7l-326 .6a5.7 5.7 0 01-5.6-5.7l-.5-216c0-1.5.6-3 1.7-4a5.6 5.6 0 014-1.7l325.9-.6zm0-2.2l-325.9.7a7.9 7.9 0 00-7.8 7.9l.4 216a7.9 7.9 0 007.9 7.8l325.9-.7a7.9 7.9 0 007.8-7.9l-.4-216a7.9 7.9 0 00-8-7.8z" fill="#0056EC"/><path d="M135.8 354.3H98a3 3 0 01-3-3v-.3a3 3 0 013-3l37.8-.1a3 3 0 013 3v.4a3 3 0 01-3 3zM131.3 208H99.1a5.5 5.5 0 01-5.5-5.5v-32.2a5.5 5.5 0 015.5-5.5h32.1a5.5 5.5 0 015.6 5.4v32.2a5.5 5.5 0 01-5.5 5.6z" fill="#fff"/><path d="M269 304.4l-112 .2a4 4 0 01-4-4v-.4a4 4 0 014-4l112-.2a4 4 0 014 4v.4a4 4 0 01-4 4zm-6.5-127.8l-88.5.2a4 4 0 01-4-4v-.4a4 4 0 014-4l88.5-.2a4 4 0 014 4v.5a4 4 0 01-4 4zm140 89.6l-118 .3a4 4 0 01-4-4v-.4a4 4 0 014-4l118-.2a4 4 0 014 4v.4a4 4 0 01-4 4zM269 321.7l-112 .2a4 4 0 01-4-4v-.4a4 4 0 014-4l112-.2a4 4 0 014 4v.4a4 4 0 01-4 4zm0 17.3l-112 .2a4 4 0 01-4-3.9v-.5a4 4 0 014-4l112-.2a4 4 0 014 4v.5a4 4 0 01-4 4zm131.1 11.3l-113 .3a6.5 6.5 0 01-6.4-6.6l-.1-48.5a6.5 6.5 0 016.5-6.5l112.9-.2a6.5 6.5 0 016.5 6.4l.1 48.6a6.5 6.5 0 01-6.5 6.5zM105 146.9a2.8 2.8 0 11-5.5 0 2.8 2.8 0 015.5 0zm9 2.8a2.8 2.8 0 100-5.6 2.8 2.8 0 000 5.6zm14.4-2.8a2.8 2.8 0 11-5.6 0 2.8 2.8 0 015.6 0zm37.4 26.6a8 8 0 10-16-1.6 8 8 0 0016 1.6z" fill="#C8DBFB"/><path d="M133.5 214.7H98.2a1.5 1.5 0 01-1.5-1.4v-.2c0-.8.6-1.5 1.5-1.5h35.3c.9 0 1.5.6 1.5 1.4v.2c0 .8-.6 1.5-1.5 1.5zm0 6.8H98.3a1.5 1.5 0 01-1.5-1.4v-.2c0-.8.7-1.5 1.5-1.5h35.3c.9 0 1.5.6 1.5 1.4v.2a1.5 1.5 0 01-1.4 1.5z" fill="#fff"/><path d="M174 235.8h-10l.1 42h-8.6a5.5 5.5 0 01-5.5-5.5l-.2-77.5a5.6 5.6 0 015.6-5.6h18.5l.1 46.6z" fill="#C8DBFB"/><path d="M238.9 189v1.1a5.4 5.4 0 015.4 5.4l.2 75.6a5.4 5.4 0 01-5.4 5.5l-82.6.1a5.4 5.4 0 01-5.5-5.4l-.1-75.6a5.4 5.4 0 015.4-5.4l82.6-.2v-1zm0 0l-82.6.2a6.5 6.5 0 00-6.5 6.5l.1 75.6a6.5 6.5 0 006.6 6.5l82.6-.2a6.5 6.5 0 006.5-6.5l-.2-75.6a6.5 6.5 0 00-6.5-6.5zm137.9 62.2l-110.2-24.9a6.5 6.5 0 01-4.9-7.8l12.4-54.9a6.5 6.5 0 017.8-4.9l110.2 25c3.5.7 5.7 4.2 4.9 7.7l-12.4 54.9a6.5 6.5 0 01-7.8 5z" fill="#C8DBFB"/><path d="M163.6 400.4h-15.4l-3.8-19.6h22.9l-3.7 19.6z" fill="#0056EC"/><path d="M148.7 380.8c0 1.6-.3 4.3.8 4.3 1 0 .6-2.5 1.8-2.5.8.1-.4 8.6 2.6 8.8 2 .1 1.6-4.2 1.8-6.9.2-1.8 2.5-1.4 2.5-.2v3.8c.1 2.5 4 1.9 4-1.6-.2-3.4 0-5.7 0-5.7h-13.5z" fill="#C8DBFB"/><path d="M145 392.7l-.9-.1a3.2 3.2 0 01-2.4-1.8c-1.5-3.3 2.6-9.6 2.8-9.9l.2 1.2s-3.7 5.4-2.3 8.4c.4.7 1 1.2 1.9 1.3l.7.1c5.6 0 15-10.3 15.2-10.5.4-.4 1.1 0 .9.4-.5.5-10.1 10.8-16.1 10.9z" fill="#0C2340"/><path opacity=".2" d="M307 124c-22-.9-52.1 15.3-41.4 55-.2 3.3 1.8 5.7 4 5 2-.6.2-7 .2-7 3.6-29.4 10.4-34.5 22-34.4H319c6.7 1 18.9 5.6 20.7 29.2l6.8 1.3c.5-17-3.6-47.8-39.5-49.1z" fill="#5275A0"/><path d="M307 120.5c-22-.8-52.1 15.4-41.4 55l4.2-1.9c3.6-29.5 10.4-34.6 22-34.4l27.2-.1c6.7 1 19.2 7 21 30.5h6.5c.5-17-3.6-47.7-39.5-49z" fill="#EF832B"/><path d="M302.5 121.2l-3.3 7.1s.4 4 4.4 4c4-.1 4.5-2 4.5-2l.5-8.2-6.1-1z" fill="#FFB9A3"/><path d="M319.2 115.2c-3.7 6.5-5.3 8.6-10.2 9.6-6.3 1.3-13.3-3-10-13.4 2.6-8.5 6.7-7.2 10.6-7 4 .4 13.6 3.7 9.6 10.8z" fill="#FFB9A3"/><path d="M304.5 110c-1-.5-2.3 0-3 .7a3.3 3.3 0 00-.9 3.2 2.9 2.9 0 00-2.7 3c-1-2.4-.5-5-.7-7.4-.2-2.5 0-5.2 1.7-7a8 8 0 012.4-2 12.4 12.4 0 0111.2 0c.7.3 2.5 1.4 5 .8 4.8-1.2 7.6 2 4.7 5.1 1 .4 2 .8 2.4 1.7v.7l-.5.2c-.8.3-1.6.4-2.5.2.3.3 2.1.4 2.7 1.5 1.4 2.7-4.3 1.3-5.1 1 1 .2 3.5 2.3 2.7 3.7-.2.3-3.6 2.3-7.3-2a6.8 6.8 0 00-3.2-2.2c-1-.3-2 .1-3 .5-.7.2-2.5 1.3-3 .7-.5-.7.2-1.8-1-2.4z" fill="#0C2340"/><path d="M340.8 169.6c-1 3.4-2 3.7-.8 4.2 1.2.6 2.1-1.3 2.1-1.3l5.5 1s-1.3-3.5-2.1-3.9c-.9-.4-4.7 0-4.7 0zm-71 4c.7 1.8.9 1.8 1.9 3.9 1.9 4-2.6 10.5-5.3 3.5-.8-2-.8-5.5-.8-5.5l4.2-1.9z" fill="#FFB9A3"/><path d="M312.2 101c3.7.2 8.3-2.4 11.2 1 .3.3.8-.2.6-.5-2.8-4-8-1-11.8-1.1-.4 0-.4.6 0 .6zm1.5-2c-2.5.4-5-.8-7.5-.4a11 11 0 00-5.5 2.7c-.4.4.1 1 .6.8 2.2-1.5 4.3-2.7 7-2.5 2 .1 3.7.7 5.6.1.5-.1.3-.8-.2-.8zm-14.4 3.4a6 6 0 00-3 4.7c-.2 1.6-.3 5.1 1.3 6 .4.2.7-.3.4-.6-1-1-1-3.8-1-5 .1-2 1-3.5 2.5-4.7.3-.1 0-.6-.2-.4zm27.4 6.1c-.9-1.6-3.2-3-5-2-.3.2-.2.6.1.6.8 0 1.5 0 2.3.2a4 4 0 012.1 1.5c.3.3.7 0 .5-.3z" fill="#0C2340"/><path d="M206.2 273.8c11.5 4.2 21.5 17.4 19.2 27-2.6 10.8-10 15.5-10 15.5L213 312s6-9.4 5.4-13.8c-.8-7-9.7-11.8-9.7-11.8l-2.5-12.6z" fill="#0B43A4"/><path d="M178 396s-7.1 2.8-8.9 4.4h14V396h-5.2zm30.8-.3s2 2.3 2.4 4.6h-9.5c.1-1.5.8-3 1.7-4.6h5.4z" fill="#0C2340"/><path d="M209.4 395.9h-6.5a930.1 930.1 0 00-5.3-75.9l3.5-.8 13.2-2.9c2.2 10.3-3 57.6-4.9 79.6z" fill="#047F76"/><path d="M185.5 319.6c-5.1 8-6.4 65.8-8.5 76.5l6.1.4s7.1-36.5 22.2-77.5l-19.8.6z" fill="#009790"/><path opacity=".2" d="M208 319a529.4 529.4 0 00-8 23.5 262 262 0 00-2.4-22.5l3.5-.8 6.8-.2z" fill="#5275A0"/><path d="M185.5 319.6c-5.1 8-6.4 65.8-8.5 76.5l6.1.4s7.1-36.5 22.2-77.5l-19.8.6z" fill="#009790"/><path d="M189.4 255s-4 15.1 5.9 15l-.6 4 7.5.8-1.6-5.4s1.5-9.5 1.6-11.2c.1-3.2-8.8-8.8-12.8-3.2z" fill="#FFB9A3"/><path d="M165 238.2h-3v12.3h3v-12.3z" fill="#0C2340"/><path d="M171.8 238.1h-16.7a2.1 2.1 0 01-2-2v-.5c0-1.1.9-2.1 2-2.1h16.7c1.2 0 2.1.9 2.1 2v.5a2.1 2.1 0 01-2 2.1z" fill="#0056EC"/><path d="M161.3 253.7c-.1-2.8-2.4-2.1-1.2-6.6.8-2.9 6.6.4 6 2.4-.8 2-1.7 5-1.7 5l-3.2-.8z" fill="#FFB9A3"/><path d="M195.3 273c-14.7 1-15.7 6-22.3 5.2-9.8-1.1-8-19.3-6.9-25.8h-5.8s-10.5 41.4 22.7 33.7c-1.2 7.3 7 19.1-1 33.5a52.3 52.3 0 0034.5 0c-1.8-2.4 3.6-26.5-7-43.8-2-3.4-13-2.8-14.2-2.7z" fill="#0056EC"/><path d="M195.3 273c-14.7 1-15.7 6-22.3 5.2-9.8-1.1-8-19.3-6.9-25.8h-5.8s-10.5 41.4 22.7 33.7c-1.2 7.3 7 19.1-1 33.5a52.3 52.3 0 0034.5 0c-1.8-2.4 3.6-26.5-7-43.8-2-3.4-13-2.8-14.2-2.7z" fill="#0056EC"/><path d="M193.3 258c1 .2 2 .4 2.6 1.2.3.5.3 1.2.3 1.8a1.5 1.5 0 012.9.3l-.2 1a12 12 0 01-1.2 2c1.3.5 2.3 4 2.9 5 2-.4 6.5-2.2 6.9-9.3.2-3.4-.8-7.4-4.5-9.6-2.5-1.6-6.8-1.6-9.7-.9-2.4.6-6.2 3-4.4 5.8.9 1.4 2.8 2.2 4.4 2.6z" fill="#EF832B"/><path d="M206 253.4c1.3-.5 3-.3 4 .9.5.9.5 2 .7 3.1.1.6.3 1 .7 1.4.4.4 1.1.6 1.8.6 1.6 0 3.2-.1 4.8.2 1.5.2 3.1 1 3.6 2.5.2.9 0 1.8.4 2.6.4 1.1 1.7 1.8 2.8 2.5a18.3 18.3 0 015.8 5.8 10.4 10.4 0 011.7 4.8c.1 1.7 1.4 4 1 5.6-.3 1.8-2 4.3-5.6 5.4-6 2-8 2.8-13.8-.7-.7-.4-2-1.8-2.7-2.3a3.1 3.1 0 01-1-1.6c-.5-1.6 0-3.4 1-5 .8-1.5 2-2.8 2.9-4.3.5-1 1-2 .9-3a1.6 1.6 0 00-.4-1c-.3-.3-.6-.4-1-.5-1.2-.2-2.6 0-3.8-.5a2.7 2.7 0 01-1.4-3.1c.2-.8.8-1.5 1-2.3.2-1.1-.5-2.3-1.5-3-1-.6-2.2-.9-3.4-1-.6-.2-1.2-.3-1.7-.6a2.2 2.2 0 01-.8-2c0-2.2 1.8-3.8 4-4.5z" fill="#EF832B"/><path d="M204.9 259.4c7.3 1.6-2 8.5 2 11.8 1 1 2.3.7 3.6.9 5 .6 2.2 4 1.9 6.7 0 .4.6.4.7 0 .4-1.8 2-4 1.2-6-.7-1.6-2.6-1.4-4.2-1.5-2 0-4 0-3.3-3.9.1-.8.8-1.7 1.2-2.5.3-1 .6-1.8.4-2.8-.4-1.8-1.8-2.8-3.4-3-.3-.1-.4.3-.1.3zm-15-9a13.5 13.5 0 0116 2c.3.2.7-.2.4-.5a12.5 12.5 0 00-16.6-1.7c-.2.1 0 .4.1.3z" fill="#EF832B"/><path d="M379 268.1l-2.4 5 5.9 2.4.6-5.7-4.1-1.7z" fill="#FFB9A3"/><path d="M382.6 252.2c-13.6 5.9-8 20.1.2 18.5 4-.9 6-13.8 6-13.8l-6.2-4.8z" fill="#FFB9A3"/><path d="M387 250.1c-.4-.8-.8-1.7-1.5-2.3-.8-.6-2-.8-2.6-.1-1 .8-.4 2.4.5 3.3-.8 0-1.7-.5-2.3 0-.4.5-.3 1.2 0 1.7a7.5 7.5 0 002.8 3.2c-.7.4-1.5 1.2-1.1 1.8l.4.6c.3.4 0 1-.3 1.4l-1.3 2c.4-.6 1.6-.4 2 .4.2.7 0 1.6-.6 2.1-.3.4-.6.6-1 .7-.4.1-2 5.2-.8 6.2 1.6 1.2 7 .1 7.7-1.2.8.8 2 1.4 3 1.2 1.2-.2 2-1.6 1.4-2.6 1.3.5 2.7 0 3.6-1 .8-1 1-2.4.3-3.6.6-.2.8-1 .6-1.7a4.1 4.1 0 00-2.8-2.9c.7 0 1.2-.7 1.2-1.4s-.3-1.3-.7-1.8c-1.3-1.6-2.8-2-4.7-2.3-1.8-.2-2.9-2.1-3.7-3.7z" fill="#4A49CA"/><path d="M374.4 395s-8 3.8-9 5c0 0 15.6.7 16.8 0 1.2-.8-2.5-5-2.5-5h-5.3zm29.5-4.3s-7 5.4-7.8 6.8c0 0 16.4-2.5 16.4-3.5 0-1.1-3.4-4.4-3.4-4.4l-5.2 1.1z" fill="#0C2340"/><path d="M382 321.6c-.2 1.6-11 44.4 20 70l9-2s-10.5-9.8-15.5-27.5c-4.6-16.7-1-18.3 1.9-27.5 3-10.2.8-17.5.8-17.5l-16.1 4.5z" fill="#D8742A"/><path d="M367.2 321.5c-4.9 11.7-13.3 51.8 5 74.3h9.3s-7.3-8-8-26.3c-1-18.4 3.8-26.5 7-32.6 3.4-6 6.4-16.4 6.4-16.4l-19.7 1z" fill="#EF832B"/><path d="M360.8 248.6c-2.5 8.6-3.3 24.5 9 30.9l8.1-2s-14.7-7.7-11.6-27.3l-5.5-1.6z" fill="#0B43A4"/><path d="M338.2 244.2l6.4-.8s-.8 26.7 30 29c23.5 1.6 25.4 45.8 25.4 45.8-7.6 5.1-20.3 6.7-36.6 5.5 0 0 1-31.5-1.6-40.1 0 0-25.6-8-23.6-39.4z" fill="#0056EC"/><path d="M330.4 239.3c-1 1.3 3.5 2.9 7.8 4.9l5.6-.7v-2.3c0-1.1-.7-1.8-1.3-.8s-3.5 1.3-4.8.4c-1.4-.9-6.2-2.7-7.3-1.5zm30.4 9.3c-2-2-1.5-1.9-1.5-1.9l6.2 1.4s1.4-3 2.5-3.1c1.2-.1-.9 2-.4 2.9.5.8-1.3 2.3-1.3 2.3l-5.5-1.6z" fill="#FFB9A3"/><path d="M390.6 253c1.2.4 2.5.5 3.6 1.4 1 .9 1.5 2.4.8 3.5-.4.6.5 1 .8.6 1-1.3.7-3-.2-4.2-1.2-1.4-3.2-2-5-1.8-.3 0-.4.5 0 .6zm5.6 11.6c.8.5 1.6 1.3 1.2 2.4-.3 1-1.3 1.5-2.1 2-.4.3 0 1 .4.7 1.1-.6 2.4-1.5 2.5-3 .2-1.2-.6-2.1-1.7-2.7-.3-.2-.7.4-.3.6zm-14.2 6.5c2.9 1.8 7 1.5 9.3-1 .3-.4-.1-1-.5-.7a8.3 8.3 0 01-8.6 1.3c-.2-.1-.5.2-.2.4z" fill="#4A49CA"/><path d="M396.6 255c1.6 1.5 0 3.7-1 5-.3.3 0 .7.3.4 1-.8 2-1.8 2-3.2a2.5 2.5 0 00-1.2-2.4c0-.1-.2 0-.1.2z" fill="#4A49CA"/><path d="M213.4 57l-2.6-6.2 24.5-9.3-22 15.5z" fill="#0B43A4"/><path d="M214.6 53.2l20.8-11.7L220.9 56l-6.3-3zM205.2 48.3l30.2-6.8-24.5 9.3-5.7-2.5z" fill="#5193F4"/><path d="M214.6 53.2l-1.2 3.8 3.7-2.6-2.5-1.2z" fill="#0056EC"/><path d="M210.5 56.2c-6.4-1.1-15 5.4-11.3 12.1 1.2 2.3 7.8 1.3 7.3-1.2-.2-1.2-1.7-1.8-3-1.6-7.1.8-7.4 6.8-7 8.3 1.6 8 13.7 5.2 17.7 4.1" stroke="#C8DBFB" stroke-miterlimit="10" stroke-linecap="round" stroke-linejoin="round" stroke-dasharray="4 4"/></g><defs><clipPath id="clip0"><path fill="#fff" d="M0 0h514v439H0z"/></clipPath></defs></svg>